%TF.GenerationSoftware,KiCad,Pcbnew,9.0.4*%
%TF.CreationDate,2025-10-09T12:47:56+02:00*%
%TF.ProjectId,io-gateway,696f2d67-6174-4657-9761-792e6b696361,rev?*%
%TF.SameCoordinates,Original*%
%TF.FileFunction,Soldermask,Top*%
%TF.FilePolarity,Negative*%
%FSLAX46Y46*%
G04 Gerber Fmt 4.6, Leading zero omitted, Abs format (unit mm)*
G04 Created by KiCad (PCBNEW 9.0.4) date 2025-10-09 12:47:56*
%MOMM*%
%LPD*%
G01*
G04 APERTURE LIST*
G04 Aperture macros list*
%AMRoundRect*
0 Rectangle with rounded corners*
0 $1 Rounding radius*
0 $2 $3 $4 $5 $6 $7 $8 $9 X,Y pos of 4 corners*
0 Add a 4 corners polygon primitive as box body*
4,1,4,$2,$3,$4,$5,$6,$7,$8,$9,$2,$3,0*
0 Add four circle primitives for the rounded corners*
1,1,$1+$1,$2,$3*
1,1,$1+$1,$4,$5*
1,1,$1+$1,$6,$7*
1,1,$1+$1,$8,$9*
0 Add four rect primitives between the rounded corners*
20,1,$1+$1,$2,$3,$4,$5,0*
20,1,$1+$1,$4,$5,$6,$7,0*
20,1,$1+$1,$6,$7,$8,$9,0*
20,1,$1+$1,$8,$9,$2,$3,0*%
G04 Aperture macros list end*
%ADD10RoundRect,0.200000X0.200000X0.275000X-0.200000X0.275000X-0.200000X-0.275000X0.200000X-0.275000X0*%
%ADD11R,1.000000X3.150000*%
%ADD12C,4.200000*%
%ADD13RoundRect,0.200000X-0.200000X-0.275000X0.200000X-0.275000X0.200000X0.275000X-0.200000X0.275000X0*%
%ADD14RoundRect,0.250000X1.100000X-0.325000X1.100000X0.325000X-1.100000X0.325000X-1.100000X-0.325000X0*%
%ADD15RoundRect,0.250000X-1.000000X-0.900000X1.000000X-0.900000X1.000000X0.900000X-1.000000X0.900000X0*%
%ADD16R,1.950000X1.950000*%
%ADD17C,1.950000*%
%ADD18C,3.000000*%
%ADD19R,2.200000X2.150000*%
%ADD20RoundRect,0.250000X-0.900000X1.000000X-0.900000X-1.000000X0.900000X-1.000000X0.900000X1.000000X0*%
%ADD21RoundRect,0.250000X0.550000X-1.500000X0.550000X1.500000X-0.550000X1.500000X-0.550000X-1.500000X0*%
%ADD22RoundRect,0.250000X-0.325000X-0.650000X0.325000X-0.650000X0.325000X0.650000X-0.325000X0.650000X0*%
%ADD23RoundRect,0.250000X0.325000X1.100000X-0.325000X1.100000X-0.325000X-1.100000X0.325000X-1.100000X0*%
%ADD24C,1.650000*%
%ADD25RoundRect,0.225000X0.225000X0.375000X-0.225000X0.375000X-0.225000X-0.375000X0.225000X-0.375000X0*%
%ADD26RoundRect,0.250000X1.000000X0.900000X-1.000000X0.900000X-1.000000X-0.900000X1.000000X-0.900000X0*%
%ADD27RoundRect,0.225000X-0.375000X0.225000X-0.375000X-0.225000X0.375000X-0.225000X0.375000X0.225000X0*%
%ADD28RoundRect,0.225000X-0.225000X-0.250000X0.225000X-0.250000X0.225000X0.250000X-0.225000X0.250000X0*%
%ADD29RoundRect,0.250001X-1.149999X-1.149999X1.149999X-1.149999X1.149999X1.149999X-1.149999X1.149999X0*%
%ADD30C,2.800000*%
%ADD31RoundRect,0.250000X-0.325000X-1.100000X0.325000X-1.100000X0.325000X1.100000X-0.325000X1.100000X0*%
%ADD32RoundRect,0.225000X-0.225000X-0.375000X0.225000X-0.375000X0.225000X0.375000X-0.225000X0.375000X0*%
%ADD33R,5.400000X2.900000*%
%ADD34RoundRect,0.250000X0.900000X-1.000000X0.900000X1.000000X-0.900000X1.000000X-0.900000X-1.000000X0*%
%ADD35RoundRect,0.150000X0.512500X0.150000X-0.512500X0.150000X-0.512500X-0.150000X0.512500X-0.150000X0*%
%ADD36RoundRect,0.218750X-0.218750X-0.256250X0.218750X-0.256250X0.218750X0.256250X-0.218750X0.256250X0*%
%ADD37RoundRect,0.225000X0.225000X0.250000X-0.225000X0.250000X-0.225000X-0.250000X0.225000X-0.250000X0*%
%ADD38RoundRect,0.250000X-0.650000X0.325000X-0.650000X-0.325000X0.650000X-0.325000X0.650000X0.325000X0*%
%ADD39RoundRect,0.200000X0.275000X-0.200000X0.275000X0.200000X-0.275000X0.200000X-0.275000X-0.200000X0*%
%ADD40C,2.600000*%
%ADD41R,1.830000X1.090000*%
%ADD42RoundRect,0.054500X-0.860500X-0.490500X0.860500X-0.490500X0.860500X0.490500X-0.860500X0.490500X0*%
%ADD43RoundRect,0.250000X0.325000X0.650000X-0.325000X0.650000X-0.325000X-0.650000X0.325000X-0.650000X0*%
%ADD44RoundRect,0.225000X-0.250000X0.225000X-0.250000X-0.225000X0.250000X-0.225000X0.250000X0.225000X0*%
%ADD45RoundRect,0.250000X-1.100000X0.325000X-1.100000X-0.325000X1.100000X-0.325000X1.100000X0.325000X0*%
%ADD46RoundRect,0.225000X0.250000X-0.225000X0.250000X0.225000X-0.250000X0.225000X-0.250000X-0.225000X0*%
%ADD47R,2.030000X1.730000*%
%ADD48O,2.030000X1.730000*%
%ADD49RoundRect,0.150000X0.150000X-0.512500X0.150000X0.512500X-0.150000X0.512500X-0.150000X-0.512500X0*%
G04 APERTURE END LIST*
D10*
%TO.C,R_DIMA_6*%
X136436600Y-118110000D03*
X138086600Y-118110000D03*
%TD*%
D11*
%TO.C,FRDM_MCXA153_1*%
X183896000Y-62992000D03*
X183896000Y-68042000D03*
X181356000Y-62992000D03*
X181356000Y-68042000D03*
X178816000Y-62992000D03*
X178816000Y-68042000D03*
X176276000Y-62992000D03*
X176276000Y-68042000D03*
X173736000Y-62992000D03*
X173736000Y-68042000D03*
X171196000Y-62992000D03*
X171196000Y-68042000D03*
X166065200Y-62992800D03*
X166065200Y-68042800D03*
X163525200Y-62992800D03*
X163525200Y-68042800D03*
X160985200Y-62992800D03*
X160985200Y-68042800D03*
X158445200Y-62992800D03*
X158445200Y-68042800D03*
X155905200Y-62992800D03*
X155905200Y-68042800D03*
X153365200Y-62992800D03*
X153365200Y-68042800D03*
X150825200Y-62992800D03*
X150825200Y-68042800D03*
X148285200Y-62992800D03*
X148285200Y-68042800D03*
X139200000Y-113768000D03*
X139200000Y-108718000D03*
X141740000Y-113768000D03*
X141740000Y-108718000D03*
X144280000Y-113768000D03*
X144280000Y-108718000D03*
X146820000Y-113768000D03*
X146820000Y-108718000D03*
X149360000Y-113768000D03*
X149360000Y-108718000D03*
X151900000Y-113768000D03*
X151900000Y-108718000D03*
X154440000Y-113768000D03*
X154440000Y-108718000D03*
X156980000Y-113768000D03*
X156980000Y-108718000D03*
X159520000Y-113768000D03*
X159520000Y-108718000D03*
X162060000Y-113768000D03*
X162060000Y-108718000D03*
X166116000Y-113755000D03*
X166116000Y-108705000D03*
X168656000Y-113755000D03*
X168656000Y-108705000D03*
X171196000Y-113755000D03*
X171196000Y-108705000D03*
X173736000Y-113755000D03*
X173736000Y-108705000D03*
X176276000Y-113755000D03*
X176276000Y-108705000D03*
X178816000Y-113755000D03*
X178816000Y-108705000D03*
X181356000Y-113755000D03*
X181356000Y-108705000D03*
X183896000Y-113755000D03*
X183896000Y-108705000D03*
D12*
X113675000Y-63692000D03*
X200670000Y-63692000D03*
X113675000Y-113476000D03*
X200670000Y-113476000D03*
%TD*%
D13*
%TO.C,R_DIMB_6*%
X153400000Y-118700000D03*
X151750000Y-118700000D03*
%TD*%
D14*
%TO.C,C_DIMA_2*%
X72136000Y-115472000D03*
X72136000Y-112522000D03*
%TD*%
D15*
%TO.C,D_DIMB_1*%
X93963600Y-89001600D03*
X98263600Y-89001600D03*
%TD*%
D16*
%TO.C,K9*%
X170799000Y-90424000D03*
D17*
X163199000Y-90424000D03*
D18*
X170549000Y-77724000D03*
X163449000Y-75184000D03*
%TD*%
D19*
%TO.C,D1*%
X57699000Y-114427000D03*
X53299000Y-114427000D03*
%TD*%
D20*
%TO.C,D_DIMA_7*%
X103073200Y-86886000D03*
X103073200Y-91186000D03*
%TD*%
D21*
%TO.C,C44*%
X56610400Y-107981400D03*
X56610400Y-102381400D03*
%TD*%
D22*
%TO.C,C_DIMA_7*%
X83665800Y-106680000D03*
X86615800Y-106680000D03*
%TD*%
D23*
%TO.C,C_DIMA_18*%
X127812800Y-116840000D03*
X124862800Y-116840000D03*
%TD*%
D24*
%TO.C,J1*%
X55250000Y-126250000D03*
X58750000Y-126250000D03*
X62250000Y-126250000D03*
X65750000Y-126250000D03*
X69250000Y-126250000D03*
X72750000Y-126250000D03*
X76250000Y-126250000D03*
X79750000Y-126250000D03*
X83250000Y-126250000D03*
X86750000Y-126250000D03*
X90250000Y-126250000D03*
X93750000Y-126250000D03*
%TD*%
D25*
%TO.C,D_K8*%
X178358800Y-94361000D03*
X175058800Y-94361000D03*
%TD*%
D26*
%TO.C,D_DIMB_7*%
X144812800Y-82245200D03*
X140512800Y-82245200D03*
%TD*%
D23*
%TO.C,C_DIMA_34*%
X182524400Y-102666800D03*
X179574400Y-102666800D03*
%TD*%
D27*
%TO.C,D_DIMA_2*%
X73710800Y-107645200D03*
X73710800Y-110945200D03*
%TD*%
D28*
%TO.C,C_DIMA_5*%
X78994000Y-109474000D03*
X80544000Y-109474000D03*
%TD*%
D29*
%TO.C,J5*%
X195933000Y-51433000D03*
D30*
X200933000Y-51433000D03*
%TD*%
D14*
%TO.C,C_DIMB_17*%
X133350000Y-118467400D03*
X133350000Y-115517400D03*
%TD*%
D29*
%TO.C,J7*%
X89000000Y-51433000D03*
D30*
X94000000Y-51433000D03*
%TD*%
D16*
%TO.C,K7*%
X195703000Y-77724000D03*
D17*
X188103000Y-77724000D03*
D18*
X195453000Y-65024000D03*
X188353000Y-62484000D03*
%TD*%
D31*
%TO.C,C_DIMB_1*%
X100925000Y-117300000D03*
X103875000Y-117300000D03*
%TD*%
D16*
%TO.C,K8*%
X183511000Y-90424000D03*
D17*
X175911000Y-90424000D03*
D18*
X183261000Y-77724000D03*
X176161000Y-75184000D03*
%TD*%
D32*
%TO.C,D_DIMA_8*%
X120245600Y-90576400D03*
X123545600Y-90576400D03*
%TD*%
D29*
%TO.C,J4*%
X142500000Y-51433000D03*
D30*
X147500000Y-51433000D03*
%TD*%
D27*
%TO.C,D_DIMB_2*%
X98425000Y-107316000D03*
X98425000Y-110616000D03*
%TD*%
D23*
%TO.C,C_DIMA_26*%
X124743000Y-97155000D03*
X121793000Y-97155000D03*
%TD*%
D33*
%TO.C,L_DIMB_5*%
X194691000Y-108201000D03*
X194691000Y-98301000D03*
%TD*%
D29*
%TO.C,J13*%
X165950000Y-51450000D03*
D30*
X170950000Y-51450000D03*
%TD*%
D34*
%TO.C,D_DIMA_9*%
X200304400Y-78435200D03*
X200304400Y-74135200D03*
%TD*%
D29*
%TO.C,J10*%
X127500000Y-51500000D03*
D30*
X132500000Y-51500000D03*
%TD*%
D22*
%TO.C,C_DIMB_23*%
X154354000Y-103886000D03*
X157304000Y-103886000D03*
%TD*%
D33*
%TO.C,L_DIMB_4*%
X153162000Y-84198000D03*
X153162000Y-74298000D03*
%TD*%
D23*
%TO.C,C_DIMA_33*%
X182526200Y-99314000D03*
X179576200Y-99314000D03*
%TD*%
D22*
%TO.C,C_DIMA_39*%
X190041000Y-114681000D03*
X192991000Y-114681000D03*
%TD*%
D16*
%TO.C,K4*%
X143881000Y-76510000D03*
D17*
X136281000Y-76510000D03*
D18*
X143631000Y-63810000D03*
X136531000Y-61270000D03*
%TD*%
D24*
%TO.C,J3*%
X162000000Y-126250000D03*
X165500000Y-126250000D03*
X169000000Y-126250000D03*
X172500000Y-126250000D03*
X176000000Y-126250000D03*
X179500000Y-126250000D03*
X183000000Y-126250000D03*
X186500000Y-126250000D03*
X190000000Y-126250000D03*
X193500000Y-126250000D03*
X197000000Y-126250000D03*
X200500000Y-126250000D03*
%TD*%
D35*
%TO.C,U5*%
X65775000Y-85979000D03*
X65775000Y-85029000D03*
X65775000Y-84079000D03*
X63500000Y-84079000D03*
X63500000Y-85979000D03*
%TD*%
D29*
%TO.C,J12*%
X180900000Y-51450000D03*
D30*
X185900000Y-51450000D03*
%TD*%
D36*
%TO.C,F1*%
X55854500Y-117602000D03*
X57429500Y-117602000D03*
%TD*%
D37*
%TO.C,C1*%
X69215000Y-90487500D03*
X67665000Y-90487500D03*
%TD*%
D29*
%TO.C,J11*%
X112500000Y-51500000D03*
D30*
X117500000Y-51500000D03*
%TD*%
D23*
%TO.C,C_DIMA_17*%
X127812800Y-113490000D03*
X124862800Y-113490000D03*
%TD*%
D24*
%TO.C,J2*%
X108500000Y-126250000D03*
X112000000Y-126250000D03*
X115500000Y-126250000D03*
X119000000Y-126250000D03*
X122500000Y-126250000D03*
X126000000Y-126250000D03*
X129500000Y-126250000D03*
X133000000Y-126250000D03*
X136500000Y-126250000D03*
X140000000Y-126250000D03*
X143500000Y-126250000D03*
X147000000Y-126250000D03*
%TD*%
D38*
%TO.C,C_DIMB_31*%
X158089600Y-87475800D03*
X158089600Y-90425800D03*
%TD*%
D39*
%TO.C,R29*%
X52222400Y-103466400D03*
X52222400Y-101816400D03*
%TD*%
D16*
%TO.C,K3*%
X64918400Y-77571600D03*
D17*
X57318400Y-77571600D03*
D18*
X64668400Y-64871600D03*
X57568400Y-62331600D03*
%TD*%
D22*
%TO.C,C_DIMB_39*%
X197053200Y-117500400D03*
X200003200Y-117500400D03*
%TD*%
D32*
%TO.C,D_DIMB_6*%
X154255200Y-101396800D03*
X157555200Y-101396800D03*
%TD*%
D25*
%TO.C,D_F1*%
X61213000Y-85471000D03*
X57913000Y-85471000D03*
%TD*%
D39*
%TO.C,R_DIMB_2*%
X98400000Y-116625000D03*
X98400000Y-114975000D03*
%TD*%
%TO.C,R_DIMA_1*%
X79756000Y-112902000D03*
X79756000Y-111252000D03*
%TD*%
D16*
%TO.C,K6*%
X107832400Y-77571600D03*
D17*
X100232400Y-77571600D03*
D18*
X107582400Y-64871600D03*
X100482400Y-62331600D03*
%TD*%
D25*
%TO.C,D_DIMB_10*%
X195401200Y-111861600D03*
X192101200Y-111861600D03*
%TD*%
D26*
%TO.C,D_DIMA_5*%
X122580400Y-106070400D03*
X118280400Y-106070400D03*
%TD*%
D23*
%TO.C,C_DIMB_34*%
X184153600Y-95199200D03*
X181203600Y-95199200D03*
%TD*%
%TO.C,C_DIMB_2*%
X92075000Y-117729000D03*
X89125000Y-117729000D03*
%TD*%
D37*
%TO.C,C_DIMA_6*%
X71742600Y-108915200D03*
X70192600Y-108915200D03*
%TD*%
D10*
%TO.C,R_DIMA_2*%
X79361800Y-118719600D03*
X77711800Y-118719600D03*
%TD*%
D29*
%TO.C,J9*%
X59000000Y-51500000D03*
D30*
X64000000Y-51500000D03*
%TD*%
D37*
%TO.C,C6*%
X69215000Y-92138500D03*
X67665000Y-92138500D03*
%TD*%
D15*
%TO.C,D_DIMB_5*%
X154958000Y-94234000D03*
X159258000Y-94234000D03*
%TD*%
D40*
%TO.C,L6*%
X64516000Y-106426000D03*
X64516000Y-102926000D03*
%TD*%
D23*
%TO.C,C_DIMB_26*%
X137697000Y-85217000D03*
X134747000Y-85217000D03*
%TD*%
D14*
%TO.C,C_DIMA_1*%
X75692000Y-115472000D03*
X75692000Y-112522000D03*
%TD*%
D16*
%TO.C,K2*%
X79943200Y-77571600D03*
D17*
X72343200Y-77571600D03*
D18*
X79693200Y-64871600D03*
X72593200Y-62331600D03*
%TD*%
D33*
%TO.C,L_DIMB_1*%
X93150000Y-103450000D03*
X93150000Y-93550000D03*
%TD*%
D16*
%TO.C,K5*%
X131441000Y-76510000D03*
D17*
X123841000Y-76510000D03*
D18*
X131191000Y-63810000D03*
X124091000Y-61270000D03*
%TD*%
D41*
%TO.C,TR1*%
X68199000Y-82423000D03*
D42*
X68199000Y-84963000D03*
X68199000Y-87503000D03*
X79439000Y-87503000D03*
X79439000Y-84963000D03*
X79439000Y-82423000D03*
%TD*%
D33*
%TO.C,L_DIMA_1*%
X79750000Y-103450000D03*
X79750000Y-93550000D03*
%TD*%
%TO.C,L_DIMA_4*%
X112318800Y-97225200D03*
X112318800Y-87325200D03*
%TD*%
%TO.C,L_DIMA_3*%
X133025000Y-103438000D03*
X133025000Y-93538000D03*
%TD*%
D38*
%TO.C,C_DIMB_7*%
X91059000Y-108634000D03*
X91059000Y-111584000D03*
%TD*%
D13*
%TO.C,R2*%
X84150000Y-86995000D03*
X85800000Y-86995000D03*
%TD*%
D43*
%TO.C,C_DIMA_23*%
X130759200Y-106578400D03*
X127809200Y-106578400D03*
%TD*%
D39*
%TO.C,R27*%
X52222400Y-107225600D03*
X52222400Y-105575600D03*
%TD*%
D33*
%TO.C,L_DIMA_5*%
X194691000Y-92453000D03*
X194691000Y-82553000D03*
%TD*%
D44*
%TO.C,C_DIMB_6*%
X95000000Y-111600000D03*
X95000000Y-113150000D03*
%TD*%
D25*
%TO.C,D_DIMB_8*%
X153871200Y-89458800D03*
X150571200Y-89458800D03*
%TD*%
D23*
%TO.C,C_DIMA_25*%
X124714000Y-93472000D03*
X121764000Y-93472000D03*
%TD*%
D38*
%TO.C,C_DIMA_31*%
X122123200Y-99617000D03*
X122123200Y-102567000D03*
%TD*%
D45*
%TO.C,C38*%
X60833000Y-113030000D03*
X60833000Y-115980000D03*
%TD*%
D33*
%TO.C,L_DIMB_3*%
X146431000Y-103378000D03*
X146431000Y-93478000D03*
%TD*%
D46*
%TO.C,C_DIMA_4*%
X81432400Y-112839800D03*
X81432400Y-111289800D03*
%TD*%
D39*
%TO.C,R_K8*%
X172974000Y-104076000D03*
X172974000Y-102426000D03*
%TD*%
D27*
%TO.C,D_DIMA_6*%
X131622800Y-109321600D03*
X131622800Y-112621600D03*
%TD*%
D23*
%TO.C,C_DIMB_25*%
X138586000Y-89789000D03*
X135636000Y-89789000D03*
%TD*%
D29*
%TO.C,J8*%
X73994000Y-51500000D03*
D30*
X78994000Y-51500000D03*
%TD*%
D47*
%TO.C,M1*%
X58420000Y-88773000D03*
D48*
X58420000Y-91313000D03*
X58420000Y-93853000D03*
%TD*%
D34*
%TO.C,D_DIMB_9*%
X185775600Y-102717600D03*
X185775600Y-98417600D03*
%TD*%
D49*
%TO.C,Q_K8*%
X174050000Y-98950000D03*
X175950000Y-98950000D03*
X175000000Y-96675000D03*
%TD*%
D16*
%TO.C,K1*%
X94980000Y-77571600D03*
D17*
X87380000Y-77571600D03*
D18*
X94730000Y-64871600D03*
X87630000Y-62331600D03*
%TD*%
D26*
%TO.C,D_DIMA_1*%
X68317000Y-112014000D03*
X64017000Y-112014000D03*
%TD*%
D23*
%TO.C,C_DIMB_18*%
X127802800Y-110226000D03*
X124852800Y-110226000D03*
%TD*%
M02*
