G04 #@! TF.GenerationSoftware,KiCad,Pcbnew,9.0.4*
G04 #@! TF.CreationDate,2025-10-15T13:49:25+02:00*
G04 #@! TF.ProjectId,io-gateway,696f2d67-6174-4657-9761-792e6b696361,rev?*
G04 #@! TF.SameCoordinates,Original*
G04 #@! TF.FileFunction,Soldermask,Bot*
G04 #@! TF.FilePolarity,Negative*
%FSLAX46Y46*%
G04 Gerber Fmt 4.6, Leading zero omitted, Abs format (unit mm)*
G04 Created by KiCad (PCBNEW 9.0.4) date 2025-10-15 13:49:25*
%MOMM*%
%LPD*%
G01*
G04 APERTURE LIST*
G04 Aperture macros list*
%AMRoundRect*
0 Rectangle with rounded corners*
0 $1 Rounding radius*
0 $2 $3 $4 $5 $6 $7 $8 $9 X,Y pos of 4 corners*
0 Add a 4 corners polygon primitive as box body*
4,1,4,$2,$3,$4,$5,$6,$7,$8,$9,$2,$3,0*
0 Add four circle primitives for the rounded corners*
1,1,$1+$1,$2,$3*
1,1,$1+$1,$4,$5*
1,1,$1+$1,$6,$7*
1,1,$1+$1,$8,$9*
0 Add four rect primitives between the rounded corners*
20,1,$1+$1,$2,$3,$4,$5,0*
20,1,$1+$1,$4,$5,$6,$7,0*
20,1,$1+$1,$6,$7,$8,$9,0*
20,1,$1+$1,$8,$9,$2,$3,0*%
G04 Aperture macros list end*
%ADD10C,4.400000*%
%ADD11RoundRect,0.100000X0.975000X-0.975000X0.975000X0.975000X-0.975000X0.975000X-0.975000X-0.975000X0*%
%ADD12C,2.150000*%
%ADD13C,3.200000*%
%ADD14C,1.850000*%
%ADD15RoundRect,0.267858X-1.232142X-1.232142X1.232142X-1.232142X1.232142X1.232142X-1.232142X1.232142X0*%
%ADD16C,3.000000*%
%ADD17C,2.800000*%
%ADD18RoundRect,0.100000X-1.015000X-0.865000X1.015000X-0.865000X1.015000X0.865000X-1.015000X0.865000X0*%
%ADD19O,2.230000X1.930000*%
%ADD20RoundRect,0.200000X-0.200000X0.700000X-0.200000X-0.700000X0.200000X-0.700000X0.200000X0.700000X0*%
%ADD21RoundRect,0.100000X-1.550000X1.205000X-1.550000X-1.205000X1.550000X-1.205000X1.550000X1.205000X0*%
%ADD22RoundRect,0.250000X0.250000X0.325000X-0.250000X0.325000X-0.250000X-0.325000X0.250000X-0.325000X0*%
%ADD23RoundRect,0.250000X0.325000X-0.250000X0.325000X0.250000X-0.325000X0.250000X-0.325000X-0.250000X0*%
%ADD24RoundRect,0.200000X-0.200000X0.637500X-0.200000X-0.637500X0.200000X-0.637500X0.200000X0.637500X0*%
%ADD25RoundRect,0.275000X-0.275000X-0.300000X0.275000X-0.300000X0.275000X0.300000X-0.275000X0.300000X0*%
%ADD26RoundRect,0.275000X0.300000X-0.275000X0.300000X0.275000X-0.300000X0.275000X-0.300000X-0.275000X0*%
%ADD27RoundRect,0.200000X0.562500X0.200000X-0.562500X0.200000X-0.562500X-0.200000X0.562500X-0.200000X0*%
%ADD28RoundRect,0.200000X-0.200000X0.562500X-0.200000X-0.562500X0.200000X-0.562500X0.200000X0.562500X0*%
%ADD29RoundRect,0.275000X-0.300000X0.275000X-0.300000X-0.275000X0.300000X-0.275000X0.300000X0.275000X0*%
%ADD30RoundRect,0.275000X0.275000X0.300000X-0.275000X0.300000X-0.275000X-0.300000X0.275000X-0.300000X0*%
%ADD31RoundRect,0.275000X0.275000X0.425000X-0.275000X0.425000X-0.275000X-0.425000X0.275000X-0.425000X0*%
%ADD32RoundRect,0.294444X0.680556X-0.368056X0.680556X0.368056X-0.680556X0.368056X-0.680556X-0.368056X0*%
%ADD33RoundRect,0.293478X-0.381522X-0.706522X0.381522X-0.706522X0.381522X0.706522X-0.381522X0.706522X0*%
%ADD34RoundRect,0.294444X-0.368056X-0.680556X0.368056X-0.680556X0.368056X0.680556X-0.368056X0.680556X0*%
%ADD35RoundRect,0.250000X-0.325000X0.250000X-0.325000X-0.250000X0.325000X-0.250000X0.325000X0.250000X0*%
%ADD36RoundRect,0.200000X0.700000X0.200000X-0.700000X0.200000X-0.700000X-0.200000X0.700000X-0.200000X0*%
%ADD37RoundRect,0.100000X1.205000X1.550000X-1.205000X1.550000X-1.205000X-1.550000X1.205000X-1.550000X0*%
%ADD38RoundRect,0.200000X-0.200000X0.925000X-0.200000X-0.925000X0.200000X-0.925000X0.200000X0.925000X0*%
%ADD39RoundRect,0.275000X0.425000X-0.275000X0.425000X0.275000X-0.425000X0.275000X-0.425000X-0.275000X0*%
%ADD40RoundRect,0.293478X-0.381522X-1.156522X0.381522X-1.156522X0.381522X1.156522X-0.381522X1.156522X0*%
%ADD41RoundRect,0.294444X0.368056X0.680556X-0.368056X0.680556X-0.368056X-0.680556X0.368056X-0.680556X0*%
%ADD42RoundRect,0.200000X-0.200000X0.875000X-0.200000X-0.875000X0.200000X-0.875000X0.200000X0.875000X0*%
%ADD43RoundRect,0.250000X-0.250000X-0.325000X0.250000X-0.325000X0.250000X0.325000X-0.250000X0.325000X0*%
%ADD44RoundRect,0.293478X-0.706522X0.381522X-0.706522X-0.381522X0.706522X-0.381522X0.706522X0.381522X0*%
%ADD45RoundRect,0.294444X-0.680556X0.368056X-0.680556X-0.368056X0.680556X-0.368056X0.680556X0.368056X0*%
%ADD46RoundRect,0.200000X-0.562500X-0.200000X0.562500X-0.200000X0.562500X0.200000X-0.562500X0.200000X0*%
G04 APERTURE END LIST*
D10*
X200676000Y-112945000D03*
X113666000Y-112945000D03*
X200676000Y-63205000D03*
X113666000Y-63205000D03*
D11*
X170799000Y-90424000D03*
D12*
X163199000Y-90424000D03*
D13*
X170549000Y-77724000D03*
X163449000Y-75184000D03*
D14*
X55250000Y-126250000D03*
X58750000Y-126250000D03*
X62250000Y-126250000D03*
X65750000Y-126250000D03*
X69250000Y-126250000D03*
X72750000Y-126250000D03*
X76250000Y-126250000D03*
X79750000Y-126250000D03*
X83250000Y-126250000D03*
X86750000Y-126250000D03*
X90250000Y-126250000D03*
X93750000Y-126250000D03*
D15*
X195933000Y-51433000D03*
D16*
X200933000Y-51433000D03*
D15*
X89000000Y-51433000D03*
D16*
X94000000Y-51433000D03*
D11*
X195703000Y-77724000D03*
D12*
X188103000Y-77724000D03*
D13*
X195453000Y-65024000D03*
X188353000Y-62484000D03*
D11*
X183511000Y-90424000D03*
D12*
X175911000Y-90424000D03*
D13*
X183261000Y-77724000D03*
X176161000Y-75184000D03*
D15*
X142500000Y-51433000D03*
D16*
X147500000Y-51433000D03*
D15*
X165950000Y-51450000D03*
D16*
X170950000Y-51450000D03*
D15*
X127500000Y-51500000D03*
D16*
X132500000Y-51500000D03*
D11*
X143881000Y-76510000D03*
D12*
X136281000Y-76510000D03*
D13*
X143631000Y-63810000D03*
X136531000Y-61270000D03*
D14*
X162000000Y-126250000D03*
X165500000Y-126250000D03*
X169000000Y-126250000D03*
X172500000Y-126250000D03*
X176000000Y-126250000D03*
X179500000Y-126250000D03*
X183000000Y-126250000D03*
X186500000Y-126250000D03*
X190000000Y-126250000D03*
X193500000Y-126250000D03*
X197000000Y-126250000D03*
X200500000Y-126250000D03*
D15*
X180900000Y-51450000D03*
D16*
X185900000Y-51450000D03*
D15*
X112500000Y-51500000D03*
D16*
X117500000Y-51500000D03*
D14*
X108500000Y-126250000D03*
X112000000Y-126250000D03*
X115500000Y-126250000D03*
X119000000Y-126250000D03*
X122500000Y-126250000D03*
X126000000Y-126250000D03*
X129500000Y-126250000D03*
X133000000Y-126250000D03*
X136500000Y-126250000D03*
X140000000Y-126250000D03*
X143500000Y-126250000D03*
X147000000Y-126250000D03*
D11*
X64918400Y-77571600D03*
D12*
X57318400Y-77571600D03*
D13*
X64668400Y-64871600D03*
X57568400Y-62331600D03*
D11*
X107832400Y-77571600D03*
D12*
X100232400Y-77571600D03*
D13*
X107582400Y-64871600D03*
X100482400Y-62331600D03*
D15*
X59000000Y-51500000D03*
D16*
X64000000Y-51500000D03*
D17*
X64516000Y-106426000D03*
X64516000Y-102926000D03*
D11*
X79943200Y-77571600D03*
D12*
X72343200Y-77571600D03*
D13*
X79693200Y-64871600D03*
X72593200Y-62331600D03*
D11*
X131441000Y-76510000D03*
D12*
X123841000Y-76510000D03*
D13*
X131191000Y-63810000D03*
X124091000Y-61270000D03*
D15*
X73994000Y-51500000D03*
D16*
X78994000Y-51500000D03*
D18*
X58420000Y-88773000D03*
D19*
X58420000Y-91313000D03*
X58420000Y-93853000D03*
D11*
X94980000Y-77571600D03*
D12*
X87380000Y-77571600D03*
D13*
X94730000Y-64871600D03*
X87630000Y-62331600D03*
D20*
X126492000Y-82169000D03*
X127762000Y-82169000D03*
X129032000Y-82169000D03*
X130302000Y-82169000D03*
X130302000Y-87469000D03*
X129032000Y-87469000D03*
X127762000Y-87469000D03*
X126492000Y-87469000D03*
D21*
X128397000Y-84819000D03*
D22*
X134619000Y-87630000D03*
X132969000Y-87630000D03*
D23*
X63373000Y-85661000D03*
X63373000Y-84011000D03*
D24*
X176850000Y-79913000D03*
X178750000Y-79913000D03*
X177800000Y-81788000D03*
D25*
X199325000Y-91650000D03*
X200875000Y-91650000D03*
D26*
X60014000Y-101092000D03*
X60014000Y-99542000D03*
D27*
X59252000Y-107955000D03*
X59252000Y-108905000D03*
X59252000Y-109855000D03*
X56977000Y-109855000D03*
X56977000Y-108905000D03*
X56977000Y-107955000D03*
D26*
X189382400Y-88608200D03*
X189382400Y-87058200D03*
D28*
X71236800Y-72528000D03*
X73136800Y-72528000D03*
X72186800Y-74803000D03*
D29*
X174371000Y-79870000D03*
X174371000Y-81420000D03*
D26*
X150876000Y-76467000D03*
X150876000Y-74917000D03*
X135686800Y-81250000D03*
X135686800Y-79700000D03*
D30*
X140678200Y-82499200D03*
X139128200Y-82499200D03*
D31*
X193450000Y-77750000D03*
X190150000Y-77750000D03*
D32*
X196850000Y-114746500D03*
X196850000Y-111821500D03*
D26*
X154838200Y-105887400D03*
X154838200Y-104337400D03*
X127100000Y-107850000D03*
X127100000Y-106300000D03*
D23*
X90678000Y-103949000D03*
X90678000Y-102299000D03*
D20*
X97755000Y-110621000D03*
X99025000Y-110621000D03*
X100295000Y-110621000D03*
X101565000Y-110621000D03*
X101565000Y-115921000D03*
X100295000Y-115921000D03*
X99025000Y-115921000D03*
X97755000Y-115921000D03*
D21*
X99660000Y-113271000D03*
D25*
X132486400Y-79629000D03*
X134036400Y-79629000D03*
D33*
X90525000Y-123400000D03*
X93475000Y-123400000D03*
D29*
X200253600Y-96875600D03*
X200253600Y-98425600D03*
D30*
X58826400Y-116636800D03*
X57276400Y-116636800D03*
D34*
X92587500Y-113150000D03*
X95512500Y-113150000D03*
D27*
X63362000Y-87569000D03*
X63362000Y-89469000D03*
X61087000Y-88519000D03*
D30*
X126492000Y-80162400D03*
X124942000Y-80162400D03*
D25*
X128192000Y-117590000D03*
X129742000Y-117590000D03*
D22*
X100964000Y-70256400D03*
X99314000Y-70256400D03*
D34*
X179887500Y-97750000D03*
X182812500Y-97750000D03*
D20*
X142963600Y-82481200D03*
X144233600Y-82481200D03*
X145503600Y-82481200D03*
X146773600Y-82481200D03*
X146773600Y-87781200D03*
X145503600Y-87781200D03*
X144233600Y-87781200D03*
X142963600Y-87781200D03*
D21*
X144868600Y-85131200D03*
D30*
X143269000Y-90678000D03*
X141719000Y-90678000D03*
D32*
X177800000Y-98062500D03*
X177800000Y-95137500D03*
D30*
X57487000Y-112522000D03*
X55937000Y-112522000D03*
D26*
X198577200Y-101206600D03*
X198577200Y-99656600D03*
D35*
X156450000Y-107500000D03*
X156450000Y-109150000D03*
D34*
X171237500Y-113750000D03*
X174162500Y-113750000D03*
D28*
X187250000Y-71975000D03*
X189150000Y-71975000D03*
X188200000Y-74250000D03*
D36*
X197306000Y-103124000D03*
X197306000Y-104394000D03*
X197306000Y-105664000D03*
X197306000Y-106934000D03*
X192006000Y-106934000D03*
X192006000Y-105664000D03*
X192006000Y-104394000D03*
X192006000Y-103124000D03*
D37*
X194656000Y-105029000D03*
D22*
X134325000Y-109650000D03*
X132675000Y-109650000D03*
D26*
X79552800Y-102337200D03*
X79552800Y-100787200D03*
D34*
X145737500Y-114600000D03*
X148662500Y-114600000D03*
X171237500Y-111100000D03*
X174162500Y-111100000D03*
D22*
X154825000Y-107500000D03*
X153175000Y-107500000D03*
D35*
X133400800Y-69470000D03*
X133400800Y-71120000D03*
D38*
X83058000Y-90268000D03*
X84328000Y-90268000D03*
X85598000Y-90268000D03*
X86868000Y-90268000D03*
X88138000Y-90268000D03*
X89408000Y-90268000D03*
X90678000Y-90268000D03*
X91948000Y-90268000D03*
X91948000Y-99568000D03*
X90678000Y-99568000D03*
X89408000Y-99568000D03*
X88138000Y-99568000D03*
X86868000Y-99568000D03*
X85598000Y-99568000D03*
X84328000Y-99568000D03*
X83058000Y-99568000D03*
D33*
X190041000Y-117602000D03*
X192991000Y-117602000D03*
D26*
X153212600Y-105887400D03*
X153212600Y-104337400D03*
D32*
X193040000Y-114746500D03*
X193040000Y-111821500D03*
D26*
X149301200Y-109639400D03*
X149301200Y-108089400D03*
D35*
X110150000Y-104425000D03*
X110150000Y-106075000D03*
D34*
X200437500Y-120200000D03*
X203362500Y-120200000D03*
D33*
X169312800Y-116332000D03*
X172262800Y-116332000D03*
D22*
X57975000Y-70561200D03*
X56325000Y-70561200D03*
D29*
X104050000Y-105800000D03*
X104050000Y-107350000D03*
D31*
X92703000Y-77571600D03*
X89403000Y-77571600D03*
D28*
X135321000Y-71131000D03*
X137221000Y-71131000D03*
X136271000Y-73406000D03*
D31*
X168629600Y-90424000D03*
X165329600Y-90424000D03*
X62636400Y-77571600D03*
X59336400Y-77571600D03*
D26*
X147828000Y-80023000D03*
X147828000Y-78473000D03*
D31*
X141629400Y-76504800D03*
X138329400Y-76504800D03*
D33*
X197026000Y-117602000D03*
X199976000Y-117602000D03*
D26*
X81280000Y-102324200D03*
X81280000Y-100774200D03*
D28*
X56352400Y-72502600D03*
X58252400Y-72502600D03*
X57302400Y-74777600D03*
X88458000Y-72045400D03*
X90358000Y-72045400D03*
X89408000Y-74320400D03*
D35*
X152750000Y-78400000D03*
X152750000Y-80050000D03*
D29*
X199644000Y-107886200D03*
X199644000Y-109436200D03*
D39*
X78867000Y-97917000D03*
X78867000Y-94617000D03*
D40*
X182981600Y-107188000D03*
X185931600Y-107188000D03*
D29*
X129413000Y-92316000D03*
X129413000Y-93866000D03*
D22*
X54150000Y-113050000D03*
X52500000Y-113050000D03*
D41*
X193450000Y-122000000D03*
X190525000Y-122000000D03*
D35*
X100700000Y-105775000D03*
X100700000Y-107425000D03*
D22*
X134075000Y-81250000D03*
X132425000Y-81250000D03*
D35*
X54172000Y-109919000D03*
X54172000Y-111569000D03*
D25*
X103100000Y-109050000D03*
X104650000Y-109050000D03*
D30*
X110175000Y-102800000D03*
X108625000Y-102800000D03*
D42*
X61010800Y-112826800D03*
X62280800Y-112826800D03*
X63550800Y-112826800D03*
X64820800Y-112826800D03*
X64820800Y-117776800D03*
X63550800Y-117776800D03*
X62280800Y-117776800D03*
X61010800Y-117776800D03*
D35*
X150876000Y-78423000D03*
X150876000Y-80073000D03*
D22*
X134350000Y-82850000D03*
X132700000Y-82850000D03*
D23*
X200253600Y-94945200D03*
X200253600Y-93295200D03*
D43*
X190386200Y-108559600D03*
X192036200Y-108559600D03*
D39*
X75057000Y-95376000D03*
X75057000Y-92076000D03*
D20*
X127075000Y-110368000D03*
X128345000Y-110368000D03*
X129615000Y-110368000D03*
X130885000Y-110368000D03*
X130885000Y-115668000D03*
X129615000Y-115668000D03*
X128345000Y-115668000D03*
X127075000Y-115668000D03*
D21*
X128980000Y-113018000D03*
D25*
X132725000Y-108100000D03*
X134275000Y-108100000D03*
D35*
X203300000Y-106275000D03*
X203300000Y-107925000D03*
D43*
X69583800Y-70612000D03*
X71233800Y-70612000D03*
D26*
X201472800Y-104407000D03*
X201472800Y-102857000D03*
D33*
X83566000Y-117094000D03*
X86516000Y-117094000D03*
D26*
X197358000Y-84836000D03*
X197358000Y-83286000D03*
D35*
X162204400Y-81217000D03*
X162204400Y-82867000D03*
D26*
X61919000Y-101105000D03*
X61919000Y-99555000D03*
X135839200Y-110700000D03*
X135839200Y-109150000D03*
D28*
X118851600Y-74218800D03*
X120751600Y-74218800D03*
X119801600Y-76493800D03*
D30*
X74816000Y-118745000D03*
X73266000Y-118745000D03*
D32*
X85450000Y-114685000D03*
X85450000Y-111760000D03*
D36*
X197324000Y-87376000D03*
X197324000Y-88646000D03*
X197324000Y-89916000D03*
X197324000Y-91186000D03*
X192024000Y-91186000D03*
X192024000Y-89916000D03*
X192024000Y-88646000D03*
X192024000Y-87376000D03*
D37*
X194674000Y-89281000D03*
D33*
X176050000Y-116840000D03*
X179000000Y-116840000D03*
D43*
X53689400Y-101600000D03*
X55339400Y-101600000D03*
D22*
X90131400Y-69951600D03*
X88481400Y-69951600D03*
D41*
X139812500Y-112650000D03*
X136887500Y-112650000D03*
D31*
X77697600Y-77622400D03*
X74397600Y-77622400D03*
D35*
X187234800Y-67969500D03*
X187234800Y-69619500D03*
D32*
X87900000Y-114675000D03*
X87900000Y-111750000D03*
D20*
X73800000Y-110380000D03*
X75070000Y-110380000D03*
X76340000Y-110380000D03*
X77610000Y-110380000D03*
X77610000Y-115680000D03*
X76340000Y-115680000D03*
X75070000Y-115680000D03*
X73800000Y-115680000D03*
D21*
X75705000Y-113030000D03*
D29*
X189738000Y-104394000D03*
X189738000Y-105944000D03*
D31*
X105494600Y-77597000D03*
X102194600Y-77597000D03*
D20*
X151030000Y-110609000D03*
X152300000Y-110609000D03*
X153570000Y-110609000D03*
X154840000Y-110609000D03*
X154840000Y-115909000D03*
X153570000Y-115909000D03*
X152300000Y-115909000D03*
X151030000Y-115909000D03*
D21*
X152935000Y-113259000D03*
D22*
X150595600Y-88087200D03*
X148945600Y-88087200D03*
D44*
X139903200Y-106932200D03*
X139903200Y-109882200D03*
D26*
X76708000Y-98565000D03*
X76708000Y-97015000D03*
D30*
X58826400Y-118414800D03*
X57276400Y-118414800D03*
D29*
X114600000Y-104625000D03*
X114600000Y-106175000D03*
D25*
X53791000Y-104394000D03*
X55341000Y-104394000D03*
D33*
X143875000Y-123350000D03*
X146825000Y-123350000D03*
D23*
X198500000Y-94950000D03*
X198500000Y-93300000D03*
D22*
X55441000Y-99314000D03*
X53791000Y-99314000D03*
D39*
X189611000Y-94996000D03*
X189611000Y-91696000D03*
D28*
X99278400Y-72319300D03*
X101178400Y-72319300D03*
X100228400Y-74594300D03*
D43*
X115354600Y-74218800D03*
X117004600Y-74218800D03*
D26*
X75057000Y-98565000D03*
X75057000Y-97015000D03*
D25*
X101116800Y-118872000D03*
X102666800Y-118872000D03*
D23*
X187147200Y-95046800D03*
X187147200Y-93396800D03*
D35*
X102400000Y-105775000D03*
X102400000Y-107425000D03*
D26*
X56966000Y-104661000D03*
X56966000Y-103111000D03*
D31*
X129158000Y-76454000D03*
X125858000Y-76454000D03*
D25*
X152500000Y-119000000D03*
X154050000Y-119000000D03*
D28*
X162219600Y-85151800D03*
X164119600Y-85151800D03*
X163169600Y-87426800D03*
D22*
X134314600Y-111199600D03*
X132664600Y-111199600D03*
D35*
X112550000Y-104550000D03*
X112550000Y-106200000D03*
X201472800Y-106261400D03*
X201472800Y-107911400D03*
D45*
X143650000Y-114287500D03*
X143650000Y-117212500D03*
D41*
X139812500Y-115250000D03*
X136887500Y-115250000D03*
D46*
X75093400Y-102382400D03*
X75093400Y-101432400D03*
X75093400Y-100482400D03*
X77368400Y-100482400D03*
X77368400Y-102382400D03*
D34*
X93137500Y-109100000D03*
X96062500Y-109100000D03*
M02*
