%TF.GenerationSoftware,KiCad,Pcbnew,9.0.4*%
%TF.CreationDate,2025-10-09T12:47:59+02:00*%
%TF.ProjectId,io-gateway,696f2d67-6174-4657-9761-792e6b696361,rev?*%
%TF.SameCoordinates,Original*%
%TF.FileFunction,Drillmap*%
%TF.FilePolarity,Positive*%
%FSLAX45Y45*%
G04 Gerber Fmt 4.5, Leading zero omitted, Abs format (unit mm)*
G04 Created by KiCad (PCBNEW 9.0.4) date 2025-10-09 12:47:59*
%MOMM*%
%LPD*%
G01*
G04 APERTURE LIST*
%ADD10C,0.050000*%
%ADD11C,0.200000*%
G04 APERTURE END LIST*
D10*
X9925000Y-5525000D02*
X10175000Y-5525000D01*
X10175000Y-4825000D01*
X15325000Y-4825000D01*
X15325000Y-5525000D01*
X15575000Y-5525000D01*
X15575000Y-4825000D01*
X20525000Y-4825000D01*
X20525000Y-12975000D01*
X15575000Y-12975000D01*
X15575000Y-12275000D01*
X15325000Y-12275000D01*
X15325000Y-12975000D01*
X10175000Y-12975000D01*
X10175000Y-12275000D01*
X9925000Y-12275000D01*
X9925000Y-12975000D01*
X4975000Y-12975000D01*
X4975000Y-4825000D01*
X9925000Y-4825000D01*
X9925000Y-5525000D01*
D11*
X5233277Y-13288984D02*
X5233277Y-13088984D01*
X5233277Y-13088984D02*
X5280896Y-13088984D01*
X5280896Y-13088984D02*
X5309467Y-13098508D01*
X5309467Y-13098508D02*
X5328515Y-13117555D01*
X5328515Y-13117555D02*
X5338039Y-13136603D01*
X5338039Y-13136603D02*
X5347563Y-13174698D01*
X5347563Y-13174698D02*
X5347563Y-13203269D01*
X5347563Y-13203269D02*
X5338039Y-13241365D01*
X5338039Y-13241365D02*
X5328515Y-13260412D01*
X5328515Y-13260412D02*
X5309467Y-13279460D01*
X5309467Y-13279460D02*
X5280896Y-13288984D01*
X5280896Y-13288984D02*
X5233277Y-13288984D01*
X5433277Y-13288984D02*
X5433277Y-13155650D01*
X5433277Y-13193746D02*
X5442801Y-13174698D01*
X5442801Y-13174698D02*
X5452324Y-13165174D01*
X5452324Y-13165174D02*
X5471372Y-13155650D01*
X5471372Y-13155650D02*
X5490420Y-13155650D01*
X5557086Y-13288984D02*
X5557086Y-13155650D01*
X5557086Y-13088984D02*
X5547563Y-13098508D01*
X5547563Y-13098508D02*
X5557086Y-13108031D01*
X5557086Y-13108031D02*
X5566610Y-13098508D01*
X5566610Y-13098508D02*
X5557086Y-13088984D01*
X5557086Y-13088984D02*
X5557086Y-13108031D01*
X5680896Y-13288984D02*
X5661848Y-13279460D01*
X5661848Y-13279460D02*
X5652324Y-13260412D01*
X5652324Y-13260412D02*
X5652324Y-13088984D01*
X5785658Y-13288984D02*
X5766610Y-13279460D01*
X5766610Y-13279460D02*
X5757086Y-13260412D01*
X5757086Y-13260412D02*
X5757086Y-13088984D01*
X6014229Y-13288984D02*
X6014229Y-13088984D01*
X6014229Y-13088984D02*
X6080896Y-13231841D01*
X6080896Y-13231841D02*
X6147562Y-13088984D01*
X6147562Y-13088984D02*
X6147562Y-13288984D01*
X6328515Y-13288984D02*
X6328515Y-13184222D01*
X6328515Y-13184222D02*
X6318991Y-13165174D01*
X6318991Y-13165174D02*
X6299943Y-13155650D01*
X6299943Y-13155650D02*
X6261848Y-13155650D01*
X6261848Y-13155650D02*
X6242801Y-13165174D01*
X6328515Y-13279460D02*
X6309467Y-13288984D01*
X6309467Y-13288984D02*
X6261848Y-13288984D01*
X6261848Y-13288984D02*
X6242801Y-13279460D01*
X6242801Y-13279460D02*
X6233277Y-13260412D01*
X6233277Y-13260412D02*
X6233277Y-13241365D01*
X6233277Y-13241365D02*
X6242801Y-13222317D01*
X6242801Y-13222317D02*
X6261848Y-13212793D01*
X6261848Y-13212793D02*
X6309467Y-13212793D01*
X6309467Y-13212793D02*
X6328515Y-13203269D01*
X6423753Y-13155650D02*
X6423753Y-13355650D01*
X6423753Y-13165174D02*
X6442801Y-13155650D01*
X6442801Y-13155650D02*
X6480896Y-13155650D01*
X6480896Y-13155650D02*
X6499943Y-13165174D01*
X6499943Y-13165174D02*
X6509467Y-13174698D01*
X6509467Y-13174698D02*
X6518991Y-13193746D01*
X6518991Y-13193746D02*
X6518991Y-13250888D01*
X6518991Y-13250888D02*
X6509467Y-13269936D01*
X6509467Y-13269936D02*
X6499943Y-13279460D01*
X6499943Y-13279460D02*
X6480896Y-13288984D01*
X6480896Y-13288984D02*
X6442801Y-13288984D01*
X6442801Y-13288984D02*
X6423753Y-13279460D01*
X6604705Y-13269936D02*
X6614229Y-13279460D01*
X6614229Y-13279460D02*
X6604705Y-13288984D01*
X6604705Y-13288984D02*
X6595182Y-13279460D01*
X6595182Y-13279460D02*
X6604705Y-13269936D01*
X6604705Y-13269936D02*
X6604705Y-13288984D01*
X6604705Y-13165174D02*
X6614229Y-13174698D01*
X6614229Y-13174698D02*
X6604705Y-13184222D01*
X6604705Y-13184222D02*
X6595182Y-13174698D01*
X6595182Y-13174698D02*
X6604705Y-13165174D01*
X6604705Y-13165174D02*
X6604705Y-13184222D01*
M02*
