G04 #@! TF.GenerationSoftware,KiCad,Pcbnew,9.0.4*
G04 #@! TF.CreationDate,2025-10-15T13:49:24+02:00*
G04 #@! TF.ProjectId,io-gateway,696f2d67-6174-4657-9761-792e6b696361,rev?*
G04 #@! TF.SameCoordinates,Original*
G04 #@! TF.FileFunction,Soldermask,Top*
G04 #@! TF.FilePolarity,Negative*
%FSLAX46Y46*%
G04 Gerber Fmt 4.6, Leading zero omitted, Abs format (unit mm)*
G04 Created by KiCad (PCBNEW 9.0.4) date 2025-10-15 13:49:24*
%MOMM*%
%LPD*%
G01*
G04 APERTURE LIST*
G04 Aperture macros list*
%AMRoundRect*
0 Rectangle with rounded corners*
0 $1 Rounding radius*
0 $2 $3 $4 $5 $6 $7 $8 $9 X,Y pos of 4 corners*
0 Add a 4 corners polygon primitive as box body*
4,1,4,$2,$3,$4,$5,$6,$7,$8,$9,$2,$3,0*
0 Add four circle primitives for the rounded corners*
1,1,$1+$1,$2,$3*
1,1,$1+$1,$4,$5*
1,1,$1+$1,$6,$7*
1,1,$1+$1,$8,$9*
0 Add four rect primitives between the rounded corners*
20,1,$1+$1,$2,$3,$4,$5,0*
20,1,$1+$1,$4,$5,$6,$7,0*
20,1,$1+$1,$6,$7,$8,$9,0*
20,1,$1+$1,$8,$9,$2,$3,0*%
G04 Aperture macros list end*
%ADD10C,4.400000*%
%ADD11RoundRect,0.100000X-0.500000X1.575000X-0.500000X-1.575000X0.500000X-1.575000X0.500000X1.575000X0*%
%ADD12RoundRect,0.100000X0.500000X-1.575000X0.500000X1.575000X-0.500000X1.575000X-0.500000X-1.575000X0*%
%ADD13RoundRect,0.293478X1.156522X-0.381522X1.156522X0.381522X-1.156522X0.381522X-1.156522X-0.381522X0*%
%ADD14RoundRect,0.271739X-1.078261X-0.978261X1.078261X-0.978261X1.078261X0.978261X-1.078261X0.978261X0*%
%ADD15RoundRect,0.100000X0.975000X-0.975000X0.975000X0.975000X-0.975000X0.975000X-0.975000X-0.975000X0*%
%ADD16C,2.150000*%
%ADD17C,3.200000*%
%ADD18RoundRect,0.100000X-1.100000X1.075000X-1.100000X-1.075000X1.100000X-1.075000X1.100000X1.075000X0*%
%ADD19RoundRect,0.271739X-0.978261X1.078261X-0.978261X-1.078261X0.978261X-1.078261X0.978261X1.078261X0*%
%ADD20RoundRect,0.281250X0.618750X-1.568750X0.618750X1.568750X-0.618750X1.568750X-0.618750X-1.568750X0*%
%ADD21RoundRect,0.293478X-0.381522X-0.706522X0.381522X-0.706522X0.381522X0.706522X-0.381522X0.706522X0*%
%ADD22RoundRect,0.293478X0.381522X1.156522X-0.381522X1.156522X-0.381522X-1.156522X0.381522X-1.156522X0*%
%ADD23C,1.850000*%
%ADD24RoundRect,0.275000X0.275000X0.425000X-0.275000X0.425000X-0.275000X-0.425000X0.275000X-0.425000X0*%
%ADD25RoundRect,0.271739X1.078261X0.978261X-1.078261X0.978261X-1.078261X-0.978261X1.078261X-0.978261X0*%
%ADD26RoundRect,0.275000X-0.425000X0.275000X-0.425000X-0.275000X0.425000X-0.275000X0.425000X0.275000X0*%
%ADD27RoundRect,0.275000X-0.275000X-0.300000X0.275000X-0.300000X0.275000X0.300000X-0.275000X0.300000X0*%
%ADD28RoundRect,0.267858X-1.232142X-1.232142X1.232142X-1.232142X1.232142X1.232142X-1.232142X1.232142X0*%
%ADD29C,3.000000*%
%ADD30RoundRect,0.293478X-0.381522X-1.156522X0.381522X-1.156522X0.381522X1.156522X-0.381522X1.156522X0*%
%ADD31RoundRect,0.275000X-0.275000X-0.425000X0.275000X-0.425000X0.275000X0.425000X-0.275000X0.425000X0*%
%ADD32RoundRect,0.100000X2.700000X-1.450000X2.700000X1.450000X-2.700000X1.450000X-2.700000X-1.450000X0*%
%ADD33RoundRect,0.271739X0.978261X-1.078261X0.978261X1.078261X-0.978261X1.078261X-0.978261X-1.078261X0*%
%ADD34RoundRect,0.200000X0.562500X0.200000X-0.562500X0.200000X-0.562500X-0.200000X0.562500X-0.200000X0*%
%ADD35RoundRect,0.268750X-0.268750X-0.306250X0.268750X-0.306250X0.268750X0.306250X-0.268750X0.306250X0*%
%ADD36RoundRect,0.275000X0.275000X0.300000X-0.275000X0.300000X-0.275000X-0.300000X0.275000X-0.300000X0*%
%ADD37RoundRect,0.293478X-0.706522X0.381522X-0.706522X-0.381522X0.706522X-0.381522X0.706522X0.381522X0*%
%ADD38RoundRect,0.250000X0.325000X-0.250000X0.325000X0.250000X-0.325000X0.250000X-0.325000X-0.250000X0*%
%ADD39RoundRect,0.250000X0.250000X0.325000X-0.250000X0.325000X-0.250000X-0.325000X0.250000X-0.325000X0*%
%ADD40RoundRect,0.250000X-0.250000X-0.325000X0.250000X-0.325000X0.250000X0.325000X-0.250000X0.325000X0*%
%ADD41C,2.800000*%
%ADD42RoundRect,0.100000X-0.915000X-0.545000X0.915000X-0.545000X0.915000X0.545000X-0.915000X0.545000X0*%
%ADD43RoundRect,0.064500X-0.950500X-0.580500X0.950500X-0.580500X0.950500X0.580500X-0.950500X0.580500X0*%
%ADD44RoundRect,0.293478X0.381522X0.706522X-0.381522X0.706522X-0.381522X-0.706522X0.381522X-0.706522X0*%
%ADD45RoundRect,0.275000X-0.300000X0.275000X-0.300000X-0.275000X0.300000X-0.275000X0.300000X0.275000X0*%
%ADD46RoundRect,0.293478X-1.156522X0.381522X-1.156522X-0.381522X1.156522X-0.381522X1.156522X0.381522X0*%
%ADD47RoundRect,0.275000X0.300000X-0.275000X0.300000X0.275000X-0.300000X0.275000X-0.300000X-0.275000X0*%
%ADD48RoundRect,0.100000X-1.015000X-0.865000X1.015000X-0.865000X1.015000X0.865000X-1.015000X0.865000X0*%
%ADD49O,2.230000X1.930000*%
%ADD50RoundRect,0.200000X0.200000X-0.562500X0.200000X0.562500X-0.200000X0.562500X-0.200000X-0.562500X0*%
G04 APERTURE END LIST*
D10*
X200676000Y-112945000D03*
X113666000Y-112945000D03*
X200676000Y-63205000D03*
X113666000Y-63205000D03*
D11*
X183896000Y-108705000D03*
X183896000Y-113755000D03*
X181356000Y-108705000D03*
X181356000Y-113755000D03*
X178816000Y-108705000D03*
X178816000Y-113755000D03*
X176276000Y-108705000D03*
X176276000Y-113755000D03*
X173736000Y-108705000D03*
X173736000Y-113755000D03*
X171196000Y-108705000D03*
X171196000Y-113755000D03*
X168656000Y-108705000D03*
X168656000Y-113755000D03*
X166116000Y-108705000D03*
X166116000Y-113755000D03*
D12*
X162060000Y-108718000D03*
X162060000Y-113768000D03*
X159520000Y-108718000D03*
X159520000Y-113768000D03*
X156980000Y-108718000D03*
X156980000Y-113768000D03*
X154440000Y-108718000D03*
X154440000Y-113768000D03*
X151900000Y-108718000D03*
X151900000Y-113768000D03*
X149360000Y-108718000D03*
X149360000Y-113768000D03*
X146820000Y-108718000D03*
X146820000Y-113768000D03*
X144280000Y-108718000D03*
X144280000Y-113768000D03*
X141740000Y-108718000D03*
X141740000Y-113768000D03*
X139200000Y-108718000D03*
X139200000Y-113768000D03*
X148285200Y-68042800D03*
X148285200Y-62992800D03*
X150825200Y-68042800D03*
X150825200Y-62992800D03*
X153365200Y-68042800D03*
X153365200Y-62992800D03*
X155905200Y-68042800D03*
X155905200Y-62992800D03*
X158445200Y-68042800D03*
X158445200Y-62992800D03*
X160985200Y-68042800D03*
X160985200Y-62992800D03*
X163525200Y-68042800D03*
X163525200Y-62992800D03*
X166065200Y-68042800D03*
X166065200Y-62992800D03*
X171196000Y-68042000D03*
X171196000Y-62992000D03*
X173736000Y-68042000D03*
X173736000Y-62992000D03*
X176276000Y-68042000D03*
X176276000Y-62992000D03*
X178816000Y-68042000D03*
X178816000Y-62992000D03*
X181356000Y-68042000D03*
X181356000Y-62992000D03*
X183896000Y-68042000D03*
X183896000Y-62992000D03*
D13*
X72136000Y-115472000D03*
X72136000Y-112522000D03*
D14*
X93963600Y-89001600D03*
X98263600Y-89001600D03*
D15*
X170799000Y-90424000D03*
D16*
X163199000Y-90424000D03*
D17*
X170549000Y-77724000D03*
X163449000Y-75184000D03*
D18*
X57699000Y-114427000D03*
X53299000Y-114427000D03*
D19*
X103073200Y-86886000D03*
X103073200Y-91186000D03*
D20*
X56610400Y-107981400D03*
X56610400Y-102381400D03*
D21*
X83665800Y-106680000D03*
X86615800Y-106680000D03*
D22*
X127812800Y-116840000D03*
X124862800Y-116840000D03*
D23*
X55250000Y-126250000D03*
X58750000Y-126250000D03*
X62250000Y-126250000D03*
X65750000Y-126250000D03*
X69250000Y-126250000D03*
X72750000Y-126250000D03*
X76250000Y-126250000D03*
X79750000Y-126250000D03*
X83250000Y-126250000D03*
X86750000Y-126250000D03*
X90250000Y-126250000D03*
X93750000Y-126250000D03*
D24*
X178358800Y-94361000D03*
X175058800Y-94361000D03*
D25*
X144812800Y-82245200D03*
X140512800Y-82245200D03*
D22*
X182524400Y-102666800D03*
X179574400Y-102666800D03*
D26*
X73710800Y-107645200D03*
X73710800Y-110945200D03*
D27*
X78994000Y-109474000D03*
X80544000Y-109474000D03*
D28*
X195933000Y-51433000D03*
D29*
X200933000Y-51433000D03*
D13*
X133350000Y-118467400D03*
X133350000Y-115517400D03*
D28*
X89000000Y-51433000D03*
D29*
X94000000Y-51433000D03*
D15*
X195703000Y-77724000D03*
D16*
X188103000Y-77724000D03*
D17*
X195453000Y-65024000D03*
X188353000Y-62484000D03*
D30*
X100925000Y-117300000D03*
X103875000Y-117300000D03*
D15*
X183511000Y-90424000D03*
D16*
X175911000Y-90424000D03*
D17*
X183261000Y-77724000D03*
X176161000Y-75184000D03*
D31*
X120245600Y-90576400D03*
X123545600Y-90576400D03*
D28*
X142500000Y-51433000D03*
D29*
X147500000Y-51433000D03*
D26*
X98425000Y-107316000D03*
X98425000Y-110616000D03*
D22*
X124743000Y-97155000D03*
X121793000Y-97155000D03*
D32*
X194691000Y-108201000D03*
X194691000Y-98301000D03*
D28*
X165950000Y-51450000D03*
D29*
X170950000Y-51450000D03*
D33*
X200304400Y-78435200D03*
X200304400Y-74135200D03*
D28*
X127500000Y-51500000D03*
D29*
X132500000Y-51500000D03*
D21*
X154354000Y-103886000D03*
X157304000Y-103886000D03*
D32*
X153162000Y-84198000D03*
X153162000Y-74298000D03*
D22*
X182526200Y-99314000D03*
X179576200Y-99314000D03*
D21*
X190041000Y-114681000D03*
X192991000Y-114681000D03*
D15*
X143881000Y-76510000D03*
D16*
X136281000Y-76510000D03*
D17*
X143631000Y-63810000D03*
X136531000Y-61270000D03*
D23*
X162000000Y-126250000D03*
X165500000Y-126250000D03*
X169000000Y-126250000D03*
X172500000Y-126250000D03*
X176000000Y-126250000D03*
X179500000Y-126250000D03*
X183000000Y-126250000D03*
X186500000Y-126250000D03*
X190000000Y-126250000D03*
X193500000Y-126250000D03*
X197000000Y-126250000D03*
X200500000Y-126250000D03*
D34*
X65775000Y-85979000D03*
X65775000Y-85029000D03*
X65775000Y-84079000D03*
X63500000Y-84079000D03*
X63500000Y-85979000D03*
D28*
X180900000Y-51450000D03*
D29*
X185900000Y-51450000D03*
D35*
X55854500Y-117602000D03*
X57429500Y-117602000D03*
D36*
X69215000Y-90487500D03*
X67665000Y-90487500D03*
D28*
X112500000Y-51500000D03*
D29*
X117500000Y-51500000D03*
D22*
X127812800Y-113490000D03*
X124862800Y-113490000D03*
D23*
X108500000Y-126250000D03*
X112000000Y-126250000D03*
X115500000Y-126250000D03*
X119000000Y-126250000D03*
X122500000Y-126250000D03*
X126000000Y-126250000D03*
X129500000Y-126250000D03*
X133000000Y-126250000D03*
X136500000Y-126250000D03*
X140000000Y-126250000D03*
X143500000Y-126250000D03*
X147000000Y-126250000D03*
D37*
X158089600Y-87475800D03*
X158089600Y-90425800D03*
D38*
X52222400Y-103466400D03*
X52222400Y-101816400D03*
D15*
X64918400Y-77571600D03*
D16*
X57318400Y-77571600D03*
D17*
X64668400Y-64871600D03*
X57568400Y-62331600D03*
D21*
X197053200Y-117500400D03*
X200003200Y-117500400D03*
D31*
X154255200Y-101396800D03*
X157555200Y-101396800D03*
D24*
X61213000Y-85471000D03*
X57913000Y-85471000D03*
D38*
X98400000Y-116625000D03*
X98400000Y-114975000D03*
X79756000Y-112902000D03*
X79756000Y-111252000D03*
D15*
X107832400Y-77571600D03*
D16*
X100232400Y-77571600D03*
D17*
X107582400Y-64871600D03*
X100482400Y-62331600D03*
D24*
X195401200Y-111861600D03*
X192101200Y-111861600D03*
D25*
X122580400Y-106070400D03*
X118280400Y-106070400D03*
D22*
X184153600Y-95199200D03*
X181203600Y-95199200D03*
X92075000Y-118100000D03*
X89125000Y-118100000D03*
D36*
X71742600Y-108915200D03*
X70192600Y-108915200D03*
D39*
X79361800Y-118719600D03*
X77711800Y-118719600D03*
D28*
X59000000Y-51500000D03*
D29*
X64000000Y-51500000D03*
D36*
X69215000Y-92138500D03*
X67665000Y-92138500D03*
D14*
X154958000Y-94234000D03*
X159258000Y-94234000D03*
D40*
X151750000Y-118700000D03*
X153400000Y-118700000D03*
D41*
X64516000Y-106426000D03*
X64516000Y-102926000D03*
D22*
X137697000Y-85217000D03*
X134747000Y-85217000D03*
D13*
X75692000Y-115472000D03*
X75692000Y-112522000D03*
D15*
X79943200Y-77571600D03*
D16*
X72343200Y-77571600D03*
D17*
X79693200Y-64871600D03*
X72593200Y-62331600D03*
D32*
X93150000Y-103450000D03*
X93150000Y-93550000D03*
D38*
X81500000Y-112925000D03*
X81500000Y-111275000D03*
D15*
X131441000Y-76510000D03*
D16*
X123841000Y-76510000D03*
D17*
X131191000Y-63810000D03*
X124091000Y-61270000D03*
D42*
X68199000Y-82423000D03*
D43*
X68199000Y-84963000D03*
X68199000Y-87503000D03*
X79439000Y-87503000D03*
X79439000Y-84963000D03*
X79439000Y-82423000D03*
D32*
X79750000Y-103450000D03*
X79750000Y-93550000D03*
X112318800Y-97225200D03*
X112318800Y-87325200D03*
X133025000Y-103438000D03*
X133025000Y-93538000D03*
D37*
X91059000Y-108634000D03*
X91059000Y-111584000D03*
D40*
X84150000Y-86995000D03*
X85800000Y-86995000D03*
D44*
X130759200Y-106578400D03*
X127809200Y-106578400D03*
D38*
X52222400Y-107225600D03*
X52222400Y-105575600D03*
D32*
X194691000Y-92453000D03*
X194691000Y-82553000D03*
D45*
X95000000Y-111600000D03*
X95000000Y-113150000D03*
D24*
X153871200Y-89458800D03*
X150571200Y-89458800D03*
D22*
X124714000Y-93472000D03*
X121764000Y-93472000D03*
D37*
X122123200Y-99617000D03*
X122123200Y-102567000D03*
D46*
X60833000Y-113030000D03*
X60833000Y-115980000D03*
D32*
X146431000Y-103378000D03*
X146431000Y-93478000D03*
D47*
X83139482Y-112900000D03*
X83139482Y-111350000D03*
D38*
X172974000Y-104076000D03*
X172974000Y-102426000D03*
D26*
X131622800Y-109321600D03*
X131622800Y-112621600D03*
D39*
X138086600Y-118110000D03*
X136436600Y-118110000D03*
D22*
X138586000Y-89789000D03*
X135636000Y-89789000D03*
D28*
X73994000Y-51500000D03*
D29*
X78994000Y-51500000D03*
D48*
X58420000Y-88773000D03*
D49*
X58420000Y-91313000D03*
X58420000Y-93853000D03*
D33*
X185775600Y-102717600D03*
X185775600Y-98417600D03*
D50*
X174050000Y-98950000D03*
X175950000Y-98950000D03*
X175000000Y-96675000D03*
D15*
X94980000Y-77571600D03*
D16*
X87380000Y-77571600D03*
D17*
X94730000Y-64871600D03*
X87630000Y-62331600D03*
D25*
X68317000Y-112014000D03*
X64017000Y-112014000D03*
D22*
X127802800Y-110226000D03*
X124852800Y-110226000D03*
M02*
