M48
; DRILL file {KiCad 9.0.4} date 2025-10-15T13:49:27+0200
; FORMAT={-:-/ absolute / metric / decimal}
; #@! TF.CreationDate,2025-10-15T13:49:27+02:00
; #@! TF.GenerationSoftware,Kicad,Pcbnew,9.0.4
; #@! TF.FileFunction,Plated,1,4,PTH
FMAT,2
METRIC
; #@! TA.AperFunction,Plated,PTH,ViaDrill
T1C0.300
; #@! TA.AperFunction,Plated,PTH,ViaDrill
T2C0.400
; #@! TA.AperFunction,Plated,PTH,ViaDrill
T3C0.500
; #@! TA.AperFunction,Plated,PTH,ViaDrill
T4C0.700
; #@! TA.AperFunction,Plated,PTH,ComponentDrill
T5C1.020
; #@! TA.AperFunction,Plated,PTH,ComponentDrill
T6C1.100
; #@! TA.AperFunction,Plated,PTH,ComponentDrill
T7C1.300
; #@! TA.AperFunction,Plated,PTH,ComponentDrill
T8C2.000
; #@! TA.AperFunction,Plated,PTH,ComponentDrill
T9C3.200
%
G90
G05
T1
X52.222Y-98.196
X52.451Y-110.795
X54.921Y-106.413
X55.491Y-111.357
X56.007Y-116.078
X56.896Y-120.396
X57.785Y-120.396
X58.674Y-120.396
X59.499Y-114.7
X59.995Y-117.297
X64.77Y-116.205
X65.61Y-116.181
X65.9Y-117.05
X66.167Y-118.75
X66.18Y-119.68
X66.2Y-117.9
X70.55Y-113.7
X70.866Y-87.376
X71.45Y-113.7
X71.628Y-82.169
X72.333Y-113.678
X73.279Y-113.665
X73.4Y-90.2
X73.66Y-88.138
X73.762Y-108.864
X75.07Y-108.102
X75.3Y-106.65
X76.2Y-101.432
X76.327Y-105.664
X77.724Y-117.348
X78.4Y-99.6
X78.5Y-112.2
X78.5Y-113.0
X78.5Y-113.8
X78.74Y-111.049
X78.799Y-114.681
X78.799Y-115.65
X79.561Y-114.3
X79.561Y-115.189
X79.561Y-116.078
X79.8Y-99.6
X80.45Y-114.3
X80.45Y-115.189
X80.45Y-116.078
X81.6Y-96.4
X81.6Y-97.6
X81.788Y-99.466
X82.601Y-84.988
X82.652Y-83.922
X83.0Y-96.4
X83.0Y-97.6
X83.122Y-86.995
X83.2Y-102.2
X83.8Y-101.4
X84.2Y-102.2
X84.4Y-97.6
X84.963Y-101.4
X86.868Y-92.1
X87.503Y-103.937
X87.63Y-97.841
X88.138Y-93.472
X89.357Y-95.809
X89.662Y-96.901
X89.662Y-97.79
X90.57Y-88.03
X90.678Y-97.79
X91.948Y-101.244
X92.964Y-100.457
X95.75Y-110.55
X100.33Y-108.915
X100.838Y-98.298
X100.838Y-99.314
X102.584Y-115.921
X115.164Y-117.196
X115.316Y-71.628
X116.0Y-103.8
X116.7Y-102.875
X118.249Y-112.7
X118.287Y-111.438
X119.382Y-113.524
X119.382Y-114.743
X119.55Y-112.5
X120.55Y-112.559
X120.55Y-113.575
X120.55Y-114.743
X122.276Y-114.402
X122.682Y-65.024
X122.733Y-113.64
X123.139Y-114.402
X124.15Y-81.8
X124.257Y-83.515
X124.724Y-91.005
X124.85Y-82.7
X124.917Y-84.176
X125.1Y-81.8
X125.476Y-83.464
X126.238Y-84.125
X126.25Y-112.3
X126.25Y-113.1
X128.651Y-74.549
X129.615Y-109.017
X130.429Y-89.281
X130.429Y-90.297
X130.55Y-85.65
X130.556Y-83.947
X130.556Y-84.836
X131.318Y-114.351
X131.55Y-85.65
X131.572Y-82.956
X131.572Y-83.947
X131.572Y-84.836
X131.953Y-87.63
X132.588Y-83.947
X132.588Y-84.836
X132.6Y-85.65
X133.0Y-89.5
X133.0Y-90.5
X133.4Y-114.2
X133.401Y-112.319
X133.401Y-113.25
X133.45Y-84.8
X133.45Y-85.65
X133.452Y-83.922
X134.0Y-89.5
X134.0Y-90.5
X134.355Y-116.642
X134.4Y-114.15
X134.417Y-112.319
X134.417Y-113.25
X135.382Y-112.319
X135.382Y-113.25
X135.4Y-114.15
X135.4Y-115.25
X136.2Y-120.8
X136.95Y-116.85
X137.0Y-109.209
X138.024Y-107.737
X139.04Y-104.546
X139.649Y-84.125
X139.649Y-85.141
X139.9Y-86.1
X140.564Y-104.597
X140.716Y-84.125
X141.224Y-66.802
X141.73Y-110.843
X142.088Y-104.597
X142.088Y-106.02
X142.884Y-107.493
X143.827Y-79.057
X145.55Y-109.65
X146.355Y-67.056
X147.066Y-76.708
X147.117Y-68.043
X147.32Y-84.684
X147.32Y-85.573
X147.95Y-108.65
X147.955Y-107.823
X147.955Y-109.6
X148.091Y-110.78
X148.15Y-112.85
X148.336Y-83.795
X148.336Y-84.684
X148.336Y-85.573
X148.336Y-86.462
X148.409Y-106.038
X148.6Y-111.65
X149.125Y-124.425
X149.149Y-89.459
X149.554Y-111.614
X150.175Y-105.125
X150.654Y-108.919
X150.712Y-108.021
X153.975Y-58.674
X154.15Y-117.45
X156.3Y-117.35
X156.6Y-116.175
X157.099Y-70.866
X159.05Y-117.35
X159.258Y-100.228
X162.25Y-66.0
X164.4Y-113.8
X168.342Y-65.342
X169.926Y-105.283
X170.307Y-104.267
X173.274Y-79.92
X177.477Y-59.301
X180.2Y-114.4
X182.0Y-111.252
X185.166Y-116.84
X187.248Y-65.805
X187.401Y-118.161
X192.126Y-110.642
X194.056Y-85.979
X194.056Y-86.97
X195.199Y-85.979
X195.199Y-86.995
X196.215Y-85.979
X197.8Y-72.55
X199.263Y-104.394
X199.517Y-89.916
X200.0Y-105.65
T2
X75.057Y-88.138
X79.8Y-89.8
T3
X51.943Y-59.436
X51.943Y-75.184
X51.943Y-91.059
X51.944Y-84.074
X52.0Y-50.5
X52.07Y-66.675
X52.07Y-96.012
X52.2Y-122.936
X52.2Y-127.6
X52.324Y-118.237
X57.15Y-127.6
X57.35Y-96.2
X57.35Y-98.9
X57.404Y-122.936
X57.404Y-124.587
X57.461Y-111.239
X58.477Y-111.239
X58.8Y-83.4
X59.182Y-97.663
X59.506Y-111.252
X60.0Y-106.85
X60.1Y-104.85
X60.325Y-122.936
X60.325Y-124.587
X60.4Y-127.6
X60.6Y-72.2
X60.85Y-105.9
X60.85Y-106.85
X61.15Y-80.15
X61.168Y-110.174
X61.7Y-105.9
X61.75Y-106.85
X63.0Y-96.5
X64.008Y-127.6
X64.5Y-69.0
X65.15Y-81.8
X65.5Y-89.0
X66.2Y-93.3
X66.4Y-100.3
X66.5Y-73.5
X66.802Y-103.7
X66.802Y-104.902
X66.85Y-102.25
X67.056Y-115.316
X67.056Y-116.078
X67.5Y-98.5
X67.6Y-127.6
X67.818Y-115.316
X67.818Y-116.078
X68.58Y-115.316
X68.58Y-116.078
X68.707Y-57.404
X68.707Y-67.31
X68.73Y-76.44
X68.834Y-118.745
X68.848Y-117.554
X69.0Y-50.5
X69.95Y-81.0
X69.952Y-118.745
X69.977Y-117.602
X70.5Y-84.0
X70.968Y-127.6
X71.018Y-118.745
X71.05Y-92.35
X71.12Y-117.602
X71.9Y-111.1
X72.0Y-85.5
X72.136Y-57.404
X73.279Y-122.555
X73.279Y-124.333
X73.4Y-84.2
X73.5Y-80.0
X74.4Y-127.6
X74.916Y-117.602
X76.13Y-82.86
X76.55Y-119.8
X76.55Y-120.85
X77.35Y-120.35
X77.724Y-105.664
X77.724Y-106.807
X78.232Y-124.079
X78.232Y-127.635
X79.121Y-105.664
X79.121Y-106.807
X79.15Y-117.3
X79.5Y-69.0
X80.2Y-91.2
X80.518Y-105.664
X80.518Y-106.807
X81.28Y-123.952
X81.4Y-90.2
X81.4Y-91.2
X81.407Y-127.635
X81.6Y-114.2
X81.6Y-117.303
X81.915Y-105.664
X81.915Y-106.807
X83.25Y-92.4
X83.25Y-93.5
X83.312Y-56.769
X83.439Y-62.103
X83.5Y-80.0
X83.82Y-50.546
X83.82Y-51.689
X84.963Y-127.635
X85.0Y-93.5
X85.217Y-92.202
X85.25Y-109.15
X85.25Y-110.1
X86.35Y-109.1
X86.35Y-110.1
X86.5Y-118.75
X86.8Y-93.5
X87.35Y-109.1
X87.35Y-110.1
X87.5Y-85.0
X87.503Y-56.642
X88.519Y-127.508
X90.5Y-68.0
X91.0Y-80.0
X91.059Y-105.664
X91.059Y-106.807
X91.8Y-86.8
X91.8Y-88.0
X91.999Y-127.559
X92.329Y-105.664
X92.329Y-106.807
X93.726Y-105.664
X93.726Y-106.807
X93.765Y-118.236
X93.85Y-110.701
X94.6Y-108.55
X94.6Y-109.8
X95.123Y-105.664
X95.123Y-106.807
X95.809Y-114.91
X95.809Y-115.773
X95.885Y-127.635
X96.5Y-85.0
X96.672Y-114.91
X96.672Y-115.773
X97.05Y-113.4
X97.13Y-118.821
X97.13Y-119.736
X97.282Y-50.292
X97.95Y-93.25
X97.95Y-94.6
X98.095Y-57.468
X98.1Y-108.816
X98.146Y-118.821
X98.146Y-119.736
X98.45Y-58.85
X99.162Y-118.821
X99.162Y-119.736
X99.2Y-95.4
X99.25Y-92.55
X99.25Y-94.0
X100.0Y-91.6
X100.5Y-80.0
X100.8Y-87.2
X101.7Y-100.45
X102.464Y-112.014
X102.464Y-112.827
X102.464Y-113.792
X102.514Y-95.555
X102.514Y-96.571
X102.95Y-110.95
X103.0Y-67.5
X103.632Y-111.963
X103.632Y-112.776
X103.632Y-113.741
X103.759Y-95.504
X103.759Y-96.52
X103.759Y-121.92
X103.759Y-122.936
X103.759Y-124.079
X103.937Y-127.406
X104.14Y-50.419
X104.14Y-52.578
X104.5Y-84.5
X104.775Y-112.776
X104.775Y-113.741
X104.775Y-121.92
X104.775Y-122.936
X104.775Y-124.079
X105.664Y-119.126
X106.0Y-91.2
X106.425Y-122.275
X106.5Y-106.0
X106.553Y-127.381
X106.6Y-100.4
X106.65Y-73.0
X108.0Y-80.0
X108.077Y-50.419
X108.077Y-52.578
X108.45Y-116.2
X108.5Y-85.0
X108.74Y-108.67
X109.45Y-75.45
X110.236Y-90.424
X110.236Y-93.853
X110.236Y-127.508
X111.25Y-67.4
X111.25Y-71.75
X112.0Y-80.0
X113.919Y-127.508
X115.189Y-90.424
X115.189Y-93.726
X115.824Y-77.086
X116.0Y-106.0
X117.297Y-127.61
X117.5Y-77.0
X118.237Y-88.9
X118.5Y-100.5
X118.5Y-102.5
X119.38Y-67.437
X119.4Y-116.0
X120.269Y-92.964
X120.269Y-94.107
X120.269Y-95.377
X120.5Y-80.0
X120.5Y-85.5
X120.5Y-116.0
X120.752Y-127.66
X121.793Y-88.9
X122.047Y-50.546
X122.047Y-52.705
X122.733Y-81.077
X123.063Y-88.9
X123.19Y-93.472
X123.19Y-95.123
X123.19Y-96.139
X123.5Y-74.0
X123.75Y-123.075
X123.775Y-124.425
X124.104Y-127.66
X124.308Y-86.512
X124.721Y-85.547
X124.841Y-108.204
X125.025Y-123.075
X125.025Y-124.4
X125.349Y-86.538
X125.476Y-64.77
X125.5Y-105.0
X125.5Y-106.0
X126.848Y-90.932
X127.102Y-100.838
X127.356Y-89.916
X127.5Y-67.0
X127.5Y-74.0
X127.5Y-93.0
X127.5Y-94.5
X127.5Y-96.0
X127.711Y-127.66
X127.889Y-90.932
X128.473Y-89.916
X128.93Y-90.932
X129.0Y-96.0
X129.259Y-106.565
X129.284Y-105.0
X130.6Y-122.6
X131.115Y-127.66
X131.5Y-74.0
X132.396Y-105.652
X132.396Y-106.795
X133.793Y-105.652
X133.793Y-106.795
X134.925Y-127.66
X135.128Y-65.659
X135.19Y-105.652
X135.19Y-106.795
X135.636Y-87.63
X136.271Y-50.546
X136.271Y-52.705
X136.779Y-101.7
X136.779Y-104.6
X137.0Y-94.0
X137.0Y-96.0
X137.058Y-81.788
X138.0Y-124.6
X138.303Y-127.635
X138.43Y-50.546
X138.43Y-52.705
X139.7Y-65.659
X139.791Y-116.7
X140.5Y-94.5
X140.589Y-96.012
X141.427Y-87.02
X141.427Y-87.986
X141.427Y-89.002
X141.859Y-127.635
X144.145Y-73.66
X144.323Y-105.41
X145.415Y-127.635
X145.644Y-105.359
X146.812Y-72.263
X147.015Y-105.41
X147.025Y-117.337
X147.9Y-58.85
X148.336Y-74.93
X148.636Y-117.25
X149.098Y-96.901
X149.25Y-116.35
X149.5Y-117.25
X150.0Y-60.0
X150.1Y-116.35
X150.4Y-117.25
X150.874Y-94.618
X150.876Y-93.587
X150.978Y-50.673
X151.0Y-125.0
X151.073Y-127.765
X151.079Y-52.781
X151.924Y-94.6
X151.954Y-93.587
X152.019Y-65.532
X152.089Y-105.125
X152.4Y-86.411
X152.4Y-87.478
X152.843Y-93.587
X152.843Y-94.615
X153.162Y-76.835
X153.289Y-65.532
X153.797Y-86.411
X153.797Y-87.478
X154.5Y-60.0
X154.559Y-65.532
X155.194Y-86.411
X155.194Y-87.478
X155.3Y-78.4
X155.321Y-76.835
X155.321Y-79.7
X155.702Y-112.268
X155.739Y-113.284
X155.739Y-114.3
X157.5Y-106.022
X157.861Y-122.936
X157.886Y-50.8
X157.886Y-127.66
X157.937Y-52.832
X157.988Y-75.057
X158.0Y-56.5
X158.115Y-83.82
X158.242Y-107.188
X158.242Y-112.8
X158.242Y-114.05
X158.242Y-115.189
X159.5Y-60.0
X159.766Y-90.424
X160.0Y-104.0
X160.147Y-122.936
X160.223Y-127.66
X160.5Y-60.0
X160.6Y-116.0
X160.8Y-112.2
X161.29Y-50.8
X161.29Y-52.832
X161.5Y-56.5
X161.5Y-60.0
X161.798Y-78.867
X161.8Y-88.4
X162.0Y-104.0
X162.5Y-60.0
X162.9Y-95.45
X163.5Y-60.0
X163.525Y-127.66
X163.957Y-83.058
X164.4Y-116.0
X164.6Y-123.0
X166.45Y-79.55
X167.4Y-113.0
X167.4Y-116.0
X167.5Y-95.5
X167.5Y-123.0
X167.513Y-99.949
X167.64Y-127.635
X170.815Y-127.635
X172.5Y-86.2
X173.101Y-94.361
X173.97Y-78.7
X174.15Y-120.95
X174.295Y-127.61
X174.371Y-101.854
X174.371Y-103.251
X174.371Y-104.521
X175.768Y-50.8
X175.768Y-52.959
X176.312Y-58.693
X176.35Y-96.8
X177.698Y-127.61
X177.8Y-120.95
X178.562Y-89.535
X179.578Y-104.648
X179.959Y-95.123
X181.049Y-102.667
X181.051Y-99.314
X181.229Y-92.456
X181.229Y-127.635
X181.5Y-123.0
X181.95Y-85.9
X184.531Y-127.635
X185.1Y-100.457
X185.5Y-119.5
X185.5Y-123.0
X185.801Y-96.266
X186.055Y-113.665
X186.1Y-110.134
X186.7Y-80.15
X187.286Y-96.506
X188.0Y-117.0
X188.0Y-119.5
X188.0Y-123.0
X188.341Y-127.635
X188.5Y-104.394
X188.595Y-90.17
X188.671Y-97.638
X188.671Y-99.162
X188.671Y-100.889
X189.23Y-66.04
X189.23Y-68.199
X189.611Y-83.312
X189.611Y-84.836
X190.0Y-113.038
X190.0Y-119.253
X190.094Y-97.638
X190.094Y-99.162
X190.754Y-50.546
X190.754Y-52.705
X191.313Y-94.996
X191.389Y-100.457
X191.389Y-101.473
X191.516Y-84.709
X191.516Y-85.725
X191.65Y-119.5
X191.75Y-123.3
X191.77Y-127.635
X192.278Y-100.457
X192.278Y-101.473
X192.405Y-74.295
X192.532Y-84.709
X192.532Y-85.725
X192.837Y-94.945
X192.837Y-95.91
X192.991Y-116.383
X193.3Y-70.85
X193.548Y-84.709
X193.548Y-110.642
X193.751Y-100.584
X193.751Y-101.549
X193.904Y-94.945
X193.904Y-95.91
X194.513Y-110.642
X194.767Y-100.584
X194.767Y-101.549
X194.92Y-94.945
X194.92Y-95.91
X195.0Y-115.0
X195.072Y-116.967
X195.25Y-119.5
X195.25Y-123.0
X195.326Y-127.635
X195.834Y-100.584
X195.834Y-101.6
X195.936Y-94.945
X195.936Y-95.91
X196.0Y-73.0
X196.0Y-75.5
X196.85Y-100.584
X196.85Y-101.6
X197.0Y-119.761
X197.002Y-94.945
X197.002Y-95.961
X198.2Y-98.6
X198.25Y-70.9
X198.272Y-108.356
X198.272Y-109.423
X198.501Y-97.028
X198.75Y-119.5
X198.75Y-123.0
X198.882Y-127.635
X199.898Y-81.534
X199.898Y-83.185
X199.898Y-84.963
X200.2Y-103.4
X200.279Y-71.628
X200.66Y-67.31
X202.184Y-59.944
X202.819Y-117.094
X202.819Y-118.364
X202.819Y-122.682
X202.819Y-127.508
X203.073Y-58.928
X203.073Y-109.347
X203.75Y-88.57
X203.85Y-92.9
X203.85Y-96.9
X203.85Y-99.9
X203.85Y-102.85
X203.9Y-76.55
X203.9Y-83.3
X203.95Y-67.2
X203.95Y-70.4
T4
X55.5Y-97.15
X110.693Y-99.974
X112.522Y-99.974
X114.198Y-99.974
X122.784Y-115.468
X128.445Y-122.825
X135.908Y-122.834
X137.058Y-122.834
X138.43Y-92.71
X138.578Y-101.628
X140.0Y-92.71
X140.0Y-101.651
X142.545Y-70.002
X148.834Y-122.834
X150.284Y-122.253
X166.0Y-65.5
X166.065Y-60.096
X183.0Y-104.971
X186.741Y-88.595
T5
X58.42Y-88.773
X58.42Y-91.313
X58.42Y-93.853
T6
X55.25Y-126.25
X58.75Y-126.25
X62.25Y-126.25
X65.75Y-126.25
X69.25Y-126.25
X72.75Y-126.25
X76.25Y-126.25
X79.75Y-126.25
X83.25Y-126.25
X86.75Y-126.25
X90.25Y-126.25
X93.75Y-126.25
X108.5Y-126.25
X112.0Y-126.25
X115.5Y-126.25
X119.0Y-126.25
X122.5Y-126.25
X126.0Y-126.25
X129.5Y-126.25
X133.0Y-126.25
X136.5Y-126.25
X140.0Y-126.25
X143.5Y-126.25
X147.0Y-126.25
X162.0Y-126.25
X165.5Y-126.25
X169.0Y-126.25
X172.5Y-126.25
X176.0Y-126.25
X179.5Y-126.25
X183.0Y-126.25
X186.5Y-126.25
X190.0Y-126.25
X193.5Y-126.25
X197.0Y-126.25
X200.5Y-126.25
T7
X57.318Y-77.572
X59.0Y-51.5
X64.0Y-51.5
X64.516Y-102.926
X64.516Y-106.426
X64.918Y-77.572
X72.343Y-77.572
X73.994Y-51.5
X78.994Y-51.5
X79.943Y-77.572
X87.38Y-77.572
X89.0Y-51.433
X94.0Y-51.433
X94.98Y-77.572
X100.232Y-77.572
X107.832Y-77.572
X112.5Y-51.5
X117.5Y-51.5
X123.841Y-76.51
X127.5Y-51.5
X131.441Y-76.51
X132.5Y-51.5
X136.281Y-76.51
X142.5Y-51.433
X143.881Y-76.51
X147.5Y-51.433
X163.199Y-90.424
X165.95Y-51.45
X170.799Y-90.424
X170.95Y-51.45
X175.911Y-90.424
X180.9Y-51.45
X183.511Y-90.424
X185.9Y-51.45
X188.103Y-77.724
X195.703Y-77.724
X195.933Y-51.433
X200.933Y-51.433
T8
X57.568Y-62.332
X64.668Y-64.872
X72.593Y-62.332
X79.693Y-64.872
X87.63Y-62.332
X94.73Y-64.872
X100.482Y-62.332
X107.582Y-64.872
X124.091Y-61.27
X131.191Y-63.81
X136.531Y-61.27
X143.631Y-63.81
X163.449Y-75.184
X170.549Y-77.724
X176.161Y-75.184
X183.261Y-77.724
X188.353Y-62.484
X195.453Y-65.024
T9
X113.666Y-63.205
X113.666Y-112.945
X200.676Y-63.205
X200.676Y-112.945
M30
